# AST/ASF file generated using VICON BodyLanguage
# -----------------------------------------------
:version 1.10
:name VICON
:units
  mass 1.0
  length 0.45
  angle deg
:documentation
   .ast/.asf automatically generated from VICON data using
   VICON BodyBuilder and BodyLanguage model FoxedUp or BRILLIANT.MOD
:root
   order TX TY TZ RX RY RZ
   axis XYZ
   position 0 0 0  
   orientation 0 0 0 
:bonedata
  begin
     id 1 
     name lhipjoint
     direction 0.630082 -0.636569 0.44472 
     length 2.82754 
     axis 0 0 0  XYZ
  end
  begin
     id 2 
     name lfemur
     direction 0.34202 -0.939693 0  
     length 7.26371  
     axis 0 0 20  XYZ
    dof rx ry rz
    limits (-160.0 20.0)
           (-70.0 70.0)
           (-60.0 70.0)
  end
  begin
     id 3 
     name ltibia
     direction 0.34202 -0.939693 0   
     length 7.88616   
     axis 0 0 20   XYZ
    dof rx
    limits (-10.0 170.0)
  end
  begin
     id 4 
     name lfoot
     direction 0.0603448 -0.165796 0.984312   
     length 1.77861   
     axis -90 7.62852e-016 20   XYZ
    dof rx rz
    limits (-45.0 90.0)
           (-70.0 20.0)
  end
  begin
     id 5 
     name ltoes
     direction 1.53577e-011 -4.21876e-011 1   
     length 0.902235   
     axis -90 7.62852e-016 20   XYZ
    dof rx
    limits (-90.0 20.0)
  end
  begin
     id 6 
     name rhipjoint
     direction -0.656778 -0.61817 0.431866   
     length 2.9117  
     axis 0 0 0  XYZ 
  end
  begin
     id 7 
     name rfemur
     direction -0.34202 -0.939693 0   
     length 6.81603   
     axis 0 0 -20   XYZ
    dof rx ry rz
    limits (-160.0 20.0)
           (-70.0 70.0)
           (-70.0 60.0)
  end
  begin
     id 8 
     name rtibia
     direction -0.34202 -0.939693 0   
     length 8.05997   
     axis 0 0 -20   XYZ
    dof rx
    limits (-10.0 170.0)
 end
 begin
     id 9 
     name rfoot
     direction -0.0862404 -0.236944 0.967688   
     length 1.84899  
     axis -90 -7.62852e-016 -20   XYZ
    dof rx rz
    limits (-45.0 90.0)
           (-20.0 70.0)
  end
  begin
     id 10 
     name rtoes
     direction -1.53561e-011 -4.21798e-011 1   
     length 0.931579   
     axis -90 -7.62852e-016 -20   XYZ
    dof rx
    limits (-90.0 20.0)
  end
  begin
     id 11 
     name lowerback
     direction -0.0110203 0.991769 -0.127564   
     length 2.05686   
     axis 0 0 0   XYZ
    dof rx ry rz
    limits (-20.0 45.0)
           (-30.0 30.0)
           (-30.0 30.0)
  end
  begin
     id 12 
     name upperback
     direction 0.0109719 0.99993 -0.00432479   
     length 2.06234   
     axis 0 0 0   XYZ
    dof rx ry rz
    limits (-20.0 45.0)
           (-30.0 30.0)
           (-30.0 30.0)
  end
  begin
     id 13 
     name thorax
     direction 0.0173308 0.998351 0.0547306   
     length 2.09856   
     axis 0 0 0   XYZ
    dof rx ry rz
    limits (-20.0 45.0)
           (-30.0 30.0)
           (-30.0 30.0)
  end
  begin
     id 14 
     name lowerneck
     direction -0.0311736 0.989033 0.144366   
     length 1.98151   
     axis 0 0 0   XYZ
    dof rx ry rz
    limits (-20.0 45.0)
           (-30.0 30.0)
           (-30.0 30.0)
  end
  begin
     id 15 
     name upperneck
     direction 0.0421057 0.975772 -0.214698   
     length 2.01457   
     axis 0 0 0   XYZ
    dof rx ry rz
    limits (-20.0 45.0)
           (-30.0 30.0)
           (-30.0 30.0)
  end
  begin
     id 16
     name head
     direction 0.0136911 0.995958 -0.0887718  
     length 2.03562  
     axis 0 0 0   XYZ
    dof rx ry rz
    limits (-20.0 45.0)
           (-30.0 30.0)
           (-30.0 30.0)
  end
  begin
     id 17 
     name lclavicle
     direction 0.915335 0.396201 0.0720134  
     length 4.16217  
     axis 0 0 0   XYZ
    dof ry rz
    limits (-20.0 10.0)
           (0.0 20.0)
  end
  begin
     id 18 
     name lhumerus
     direction 1 -4.48965e-011 6.383e-018   
     length 4.93042   
     axis -180 -30 -90   XYZ
    dof rx ry rz
    limits (-60.0 90.0)
           (-90.0 90.0)
           (-90.0 90.0)
  end
  begin
     id 19
     name lradius
     direction 1 -4.48972e-011 8.8689e-027   
     length 3.68177   
     axis -180 -30 -90   XYZ
    dof rx
    limits (-10.0 170.0)
  end
  begin
     id 20
     name lwrist
     direction 1 -4.48953e-011 1.17971e-026   
     length 1.84089   
     axis -7.69454e-015 90 90   XYZ
    dof ry
    limits (-180.0 0.0)
 end
  begin
     id 21 
     name lhand
     direction 1 -4.49027e-011 2.35802e-026   
     length 0.721479   
     axis -1.50533e-014 90 90   XYZ
    dof rx rz
    limits (-90.0 90.0)
           (-45.0 45.0)
  end
  begin
     id 22 
     name lfingers
     direction 1 -4.48915e-011 4.72027e-026   
     length 0.581675   
     axis -3.01059e-014 90 90   XYZ
    dof rx
    limits (0.0 90.0)
  end
  begin
     id 23
     name lthumb
     direction 0.707107 -6.34948e-011 0.707107   
     length 0.835172   
     axis -90 45 -5.12164e-014   XYZ
    dof rx rz
    limits (-45.0 45.0)
           (-45.0 45.0)
  end
  begin
     id 24 
     name rclavicle
     direction -0.882781 0.469197 0.0234974   
     length 3.95647  
     axis 0 0 0   XYZ 
    dof ry rz
    limits (-10.0 20.0)
           (-20.0 0.0)
  end
  begin
     id 25 
     name rhumerus
     direction -1 -4.48965e-011 -1.54906e-018  
     length 5.07905   
     axis -180 30 90   XYZ
    dof rx ry rz
    limits (-90.0 60.0)
           (-90.0 90.0)
           (-90.0 90.0)
  end
  begin
     id 26 
     name rradius
     direction -1 -4.48972e-011 5.47489e-027   
     length 3.54394   
     axis -180 30 90   XYZ
    dof rx
    limits (-10.0 170.0)
  end
  begin
     id 27 
     name rwrist
     direction -1 -4.48955e-011 1.17969e-026   
     length 1.77197   
     axis -7.69454e-015 -90 -90   XYZ
    dof ry
    limits (-180.0 0.0)
  end
  begin
     id 28
     name rhand
     direction -1 -4.48982e-011 2.35888e-026   
     length 0.681156   
     axis -1.50533e-014 -90 -90   XYZ
    dof rx rz
    limits (-90.0 90.0)
           (-45.0 45.0)
  end
  begin
     id 29
     name rfingers
     direction -1 -4.48955e-011 4.71877e-026   
     length 0.549165   
     axis -3.01059e-014 -90 -90   XYZ
    dof rx
    limits (0.0 90.0)
  end
  begin
     id 30
     name rthumb
     direction -0.707107 -6.3491e-011 0.707107   
     length 0.788495   
     axis -90 -45 5.12164e-014   XYZ
    dof rx rz
    limits (-45.0 45.0)
           (-45.0 45.0)
  end
:hierarchy
  begin
    root lhipjoint rhipjoint lowerback
    lhipjoint lfemur
    lfemur ltibia
    ltibia lfoot
    lfoot ltoes
    rhipjoint rfemur
    rfemur rtibia
    rtibia rfoot
    rfoot rtoes
    lowerback upperback
    upperback thorax
    thorax lowerneck lclavicle rclavicle
    lowerneck upperneck
    upperneck head
    lclavicle lhumerus
    lhumerus lradius
    lradius lwrist
    lwrist lhand lthumb
    lhand lfingers
    rclavicle rhumerus
    rhumerus rradius
    rradius rwrist
    rwrist rhand rthumb
    rhand rfingers
  end

#!OML:ASF H:\Bending\Project 1\Capture day 1\Session 1\Subject.ASF
:FULLY-SPECIFIED
:DEGREES
438
root -9.90602 18.0651 -16.371 -158.222 85.1036 -163.32
lowerback 5.79272 -0.0903135 1.20327
upperback -1.82615 0.100557 2.11847
thorax -5.14894 0.0569816 1.51183
lowerneck -23.1701 -4.10522 -5.66918
upperneck 33.4315 -3.44367 1.01691
head 15.9082 -1.78465 0.783784
rclavicle -2.03754e-015 1.27222e-014
rhumerus -47.4768 -5.40919 -73.2024
rradius 35.0907
rwrist 10.8789
rhand -16.1906 -16.7631
rfingers 7.12502
rthumb 10.0162 -46.5047
lclavicle -2.03754e-015 1.27222e-014
lhumerus -35.4427 0.208339 91.06
lradius 26.5012
lwrist 15.2323
lhand -35.4296 9.57478
lfingers 7.12502
lthumb -8.55936 39.3813
rfemur 4.0799 -6.18297 16.2982
rtibia 1.27222e-014
rfoot -8.79841 -15.1618
rtoes 6.91895
lfemur -8.32404 -17.0646 -11.8448
ltibia 20.604
lfoot -22.9998 12.8667
ltoes 1.15974
439
root -9.90469 18.0679 -16.3691 -158.702 85.1068 -163.804
lowerback 5.80388 -0.0631899 1.18925
upperback -1.8388 0.13558 2.10728
thorax -5.16912 0.0745075 1.50467
lowerneck -23.1436 -4.12034 -5.68469
upperneck 33.4798 -3.46667 1.04212
head 15.9277 -1.7911 0.793485
rclavicle 5.46658e-016 -5.56597e-015
rhumerus -47.4889 -5.89433 -72.7576
rradius 34.6664
rwrist 11.4383
rhand -16.4954 -16.4439
rfingers 7.12502
rthumb 9.72224 -46.1995
lclavicle 5.46658e-016 -5.56597e-015
lhumerus -35.4822 -0.0444236 91.1307
lradius 26.5035
lwrist 15.3316
lhand -35.4851 9.50202
lfingers 7.12502
lthumb -8.6129 39.3063
rfemur 4.10654 -6.19546 16.235
rtibia 1.59028e-014
rfoot -9.01475 -15.0438
rtoes 8.33565
lfemur -8.25085 -17.0554 -11.8806
ltibia 20.4545
lfoot -22.9219 12.8762
ltoes 1.16043
440
root -9.9028 18.0693 -16.3669 -158.832 85.0985 -163.929
lowerback 5.81279 -0.0597406 1.18352
upperback -1.85092 0.140785 2.11427
thorax -5.187 0.0774621 1.51476
lowerneck -23.12 -4.11009 -5.66181
upperneck 33.5307 -3.45876 1.04323
head 15.946 -1.78339 0.792576
rclavicle -7.60351e-015 2.50469e-014
rhumerus -47.4562 -6.3533 -72.3478
rradius 34.2169
rwrist 12.0709
rhand -16.8357 -16.0066
rfingers 7.12502
rthumb 9.39385 -45.7772
lclavicle -7.60351e-015 2.50469e-014
lhumerus -35.5361 -0.210205 91.1759
lradius 26.53
lwrist 15.3966
lhand -35.4901 9.41881
lfingers 7.12502
lthumb -8.61774 39.2229
rfemur 4.12889 -6.20675 16.2259
rtibia 3.18055e-015
rfoot -9.11458 -15.0033
rtoes 8.92828
lfemur -8.19791 -17.0391 -11.8791
ltibia 20.3617
lfoot -22.8655 12.8617
ltoes 1.25273
441
root -9.9003 18.0694 -16.3645 -158.651 85.079 -163.738
lowerback 5.81665 -0.0802295 1.17934
upperback -1.85846 0.11535 2.14335
thorax -5.19678 0.0657396 1.55003
lowerneck -23.112 -4.07544 -5.61043
upperneck 33.5834 -3.41362 1.0125
head 15.9655 -1.76147 0.780434
rclavicle 3.08116e-015 -9.14409e-015
rhumerus -47.3798 -6.70858 -72.0171
rradius 33.8081
rwrist 12.6094
rhand -17.104 -15.532
rfingers 7.12502
rthumb 9.13498 -45.3141
lclavicle 3.08116e-015 -9.14409e-015
lhumerus -35.5968 -0.220567 91.1808
lradius 26.582
lwrist 15.4068
lhand -35.4568 9.33748
lfingers 7.12502
lthumb -8.5856 39.1429
rfemur 4.14836 -6.21797 16.2641
rtibia 1.90833e-014
rfoot -9.10549 -15.0306
rtoes 8.75343
lfemur -8.1712 -17.0058 -11.8446
ltibia 20.334
lfoot -22.8372 12.811
ltoes 1.45408
442
root -9.89726 18.0686 -16.362 -158.333 85.0558 -163.405
lowerback 5.81482 -0.117188 1.16051
upperback -1.8586 0.0676988 2.19262
thorax -5.1952 0.0439588 1.61671
lowerneck -23.1258 -4.02503 -5.5519
upperneck 33.6337 -3.33726 0.955785
head 15.987 -1.72987 0.761836
rclavicle -5.31749e-015 2.54444e-014
rhumerus -47.2743 -6.87476 -71.8135
rradius 33.5253
rwrist 12.8793
rhand -17.2105 -15.1693
rfingers 7.12502
rthumb 9.03224 -44.9559
lclavicle -5.31749e-015 2.54444e-014
lhumerus -35.6531 -0.0601404 91.1518
lradius 26.6514
lwrist 15.3633
lhand -35.4233 9.27379
lfingers 7.12502
lthumb -8.55331 39.0806
rfemur 4.16877 -6.22777 16.3231
rtibia -2.22639e-014
rfoot -9.03194 -15.0903
rtoes 8.13038
lfemur -8.16393 -16.9526 -11.7964
ltibia 20.3553
lfoot -22.8325 12.7313
ltoes 1.70603
443
root -9.8938 18.0674 -16.3594 -158.063 85.0399 -163.117
lowerback 5.80803 -0.158327 1.11451
upperback -1.85065 0.0126784 2.25405
thorax -5.18207 0.0196416 1.71197
lowerneck -23.1582 -3.97104 -5.50427
upperneck 33.6752 -3.24567 0.88603
head 16.0081 -1.69573 0.742166
rclavicle 4.82053e-015 1.19271e-015
rhumerus -47.162 -6.80429 -71.7639
rradius 33.4351
rwrist 12.7819
rhand -17.1185 -15.0738
rfingers 7.12502
rthumb 9.12096 -44.8566
lclavicle 4.82053e-015 1.19271e-015
lhumerus -35.6957 0.227823 91.1087
lradius 26.7263
lwrist 15.2915
lhand -35.4323 9.24089
lfingers 7.12502
lthumb -8.56201 39.0473
rfemur 4.19334 -6.23188 16.3732
rtibia 2.22639e-014
rfoot -8.95032 -15.143
rtoes 7.46013
lfemur -8.16183 -16.8821 -11.7574
ltibia 20.3975
lfoot -22.8386 12.6453
ltoes 1.884
444
root -9.89001 18.0664 -16.3569 -157.925 85.0406 -162.962
lowerback 5.79717 -0.191398 1.04468
upperback -1.83586 -0.0337843 2.31601
thorax -5.15945 0.000256227 1.82021
lowerneck -23.199 -3.9241 -5.47114
upperneck 33.7015 -3.15847 0.814702
head 16.0245 -1.66592 0.723111
rclavicle -6.06293e-015 3.33958e-014
rhumerus -47.0638 -6.52177 -71.8562
rradius 33.5553
rwrist 12.3472
rhand -16.8634 -15.3317
rfingers 7.12502
rthumb 9.36718 -45.1036
lclavicle -6.06293e-015 3.33958e-014
lhumerus -35.7206 0.557821 91.0741
lradius 26.7979
lwrist 15.2328
lhand -35.5037 9.24327
lfingers 7.12502
lthumb -8.6309 39.0468
rfemur 4.2223 -6.2248 16.3982
rtibia 2.70347e-014
rfoot -8.90132 -15.166
rtoes 7.0299
lfemur -8.15127 -16.8007 -11.7403
ltibia 20.4356
lfoot -22.8411 12.5795
ltoes 1.84687
445
root -9.88598 18.0658 -16.3547 -157.877 85.0608 -162.896
lowerback 5.78292 -0.208462 0.972253
upperback -1.81685 -0.0600444 2.36644
thorax -5.13078 -0.00939306 1.91579
lowerneck -23.2368 -3.89004 -5.44102
upperneck 33.7099 -3.09208 0.747234
head 16.0325 -1.64482 0.701864
rclavicle -1.26725e-014 -3.18055e-014
rhumerus -46.9903 -6.1248 -72.0399
rradius 33.844
rwrist 11.7249
rhand -16.5382 -15.9071
rfingers 7.12502
rthumb 9.68096 -45.6646
lclavicle -1.26725e-014 -3.18055e-014
lhumerus -35.7287 0.835301 91.0624
lradius 26.8639
lwrist 15.2274
lhand -35.6205 9.27323
lfingers 7.12502
lthumb -8.74362 39.0721
rfemur 4.25247 -6.20282 16.4009
rtibia 3.18055e-015
rfoot -8.89283 -15.1603
rtoes 6.89688
lfemur -8.12547 -16.7154 -11.743
ltibia 20.4576
lfoot -22.8304 12.5501
ltoes 1.51651
446
root -9.88183 18.0654 -16.3529 -157.809 85.0957 -162.811
lowerback 5.76623 -0.207948 0.92657
upperback -1.79661 -0.0620774 2.39649
thorax -5.10004 -0.00840466 1.97262
lowerneck -23.2653 -3.86939 -5.39721
upperneck 33.7037 -3.05477 0.684155
head 16.0321 -1.63342 0.674252
rclavicle 4.07509e-015 1.11319e-014
rhumerus -46.936 -5.74329 -72.2493
rradius 34.2172
rwrist 11.1107
rhand -16.2546 -16.6463
rfingers 7.12502
rthumb 9.9545 -46.3909
lclavicle 4.07509e-015 1.11319e-014
lhumerus -35.7246 0.989833 91.077
lradius 26.9284
lwrist 15.2946
lhand -35.7353 9.315
lfingers 7.12502
lthumb -8.8544 39.1092
rfemur 4.27869 -6.1666 16.397
rtibia 1.59028e-015
rfoot -8.90245 -15.1453
rtoes 6.9098
lfemur -8.08662 -16.6329 -11.7529
ltibia 20.4655
lfoot -22.8039 12.5575
ltoes 0.917861
447
root -9.87776 18.0651 -16.3517 -157.639 85.1368 -162.625
lowerback 5.74896 -0.193708 0.929518
upperback -1.77762 -0.043387 2.4025
thorax -5.0709 0.00078423 1.97498
lowerneck -23.285 -3.85956 -5.33187
upperneck 33.6903 -3.04616 0.626854
head 16.0267 -1.63022 0.639666
rclavicle 1.26228e-014 4.77083e-015
rhumerus -46.8834 -5.4848 -72.4313
rradius 34.585
rwrist 10.6597
rhand -16.0927 -17.3382
rfingers 7.12502
rthumb 10.1107 -47.0753
lclavicle 1.26228e-014 4.77083e-015
lhumerus -35.7134 0.995383 91.1133
lradius 26.9977
lwrist 15.4258
lhand -35.7934 9.34974
lfingers 7.12502
lthumb -8.91046 39.1416
rfemur 4.29624 -6.12161 16.4018
rtibia 1.27222e-014
rfoot -8.89581 -15.1449
rtoes 6.83674
lfemur -8.04339 -16.5585 -11.7581
ltibia 20.4687
lfoot -22.7657 12.5882
ltoes 0.18073
448
root -9.87404 18.0647 -16.3511 -157.379 85.1761 -162.352
lowerback 5.73391 -0.17192 0.983571
upperback -1.76127 -0.0118028 2.38669
thorax -5.04611 0.0143261 1.92466
lowerneck -23.3021 -3.85805 -5.25533
upperneck 33.6782 -3.06012 0.582738
head 16.022 -1.63285 0.604297
rclavicle -3.27995e-015 -2.78299e-014
rhumerus -46.8139 -5.3937 -72.5614
rradius 34.8891
rwrist 10.4288
rhand -16.0699 -17.8018
rfingers 7.12502
rthumb 10.1327 -47.5379
lclavicle -3.27995e-015 -2.78299e-014
lhumerus -35.6982 0.871501 91.1652
lradius 27.0749
lwrist 15.5885
lhand -35.7637 9.36413
lfingers 7.12502
lthumb -8.88175 39.1572
rfemur 4.3031 -6.07569 16.4192
rtibia 6.36111e-015
rfoot -8.84784 -15.1744
rtoes 6.51117
lfemur -8.00546 -16.4985 -11.7555
ltibia 20.4767
lfoot -22.726 12.6233
ltoes -0.491959
